<svg xmlns="http://www.w3.org/2000/svg" width="1200" height="630" viewBox="0 0 1200 630">
  <rect width="1200" height="630" fill="#F4ECDE"/>
  <rect x="24" y="24" width="1152" height="582" fill="none" stroke="#C16C82" stroke-width="2"/>
  <rect x="38" y="38" width="1124" height="554" fill="none" stroke="#8E4359" stroke-width="1" stroke-dasharray="3 5"/>

  <!-- Brand medallion -->
  <g transform="translate(120 105) scale(4.2)">
    <circle cx="50" cy="50" r="50" fill="#FBF4F1"/>
    <circle cx="50" cy="50" r="44.5" fill="none" stroke="#C16C82" stroke-width="3"/>
    <circle cx="50" cy="50" r="38" fill="none" stroke="#8E4359" stroke-width="0.8" stroke-dasharray="2 2.4"/>
    <g transform="translate(50 50)">
      <g fill="#F9F0F1" stroke="#8E4359" stroke-width="1.3" stroke-linejoin="round">
        <path d="M0,3 Q7,-14 0,-31 Q-7,-14 0,3 Z"/>
        <path d="M0,3 Q7,-14 0,-31 Q-7,-14 0,3 Z" transform="rotate(45)"/>
        <path d="M0,3 Q7,-14 0,-31 Q-7,-14 0,3 Z" transform="rotate(90)"/>
        <path d="M0,3 Q7,-14 0,-31 Q-7,-14 0,3 Z" transform="rotate(135)"/>
        <path d="M0,3 Q7,-14 0,-31 Q-7,-14 0,3 Z" transform="rotate(180)"/>
        <path d="M0,3 Q7,-14 0,-31 Q-7,-14 0,3 Z" transform="rotate(225)"/>
        <path d="M0,3 Q7,-14 0,-31 Q-7,-14 0,3 Z" transform="rotate(270)"/>
        <path d="M0,3 Q7,-14 0,-31 Q-7,-14 0,3 Z" transform="rotate(315)"/>
      </g>
      <g fill="#E7C9D0" stroke="#C16C82" stroke-width="1" stroke-linejoin="round">
        <path d="M0,1 Q4.5,-8 0,-17 Q-4.5,-8 0,1 Z" transform="rotate(22.5)"/>
        <path d="M0,1 Q4.5,-8 0,-17 Q-4.5,-8 0,1 Z" transform="rotate(67.5)"/>
        <path d="M0,1 Q4.5,-8 0,-17 Q-4.5,-8 0,1 Z" transform="rotate(112.5)"/>
        <path d="M0,1 Q4.5,-8 0,-17 Q-4.5,-8 0,1 Z" transform="rotate(157.5)"/>
        <path d="M0,1 Q4.5,-8 0,-17 Q-4.5,-8 0,1 Z" transform="rotate(202.5)"/>
        <path d="M0,1 Q4.5,-8 0,-17 Q-4.5,-8 0,1 Z" transform="rotate(247.5)"/>
        <path d="M0,1 Q4.5,-8 0,-17 Q-4.5,-8 0,1 Z" transform="rotate(292.5)"/>
        <path d="M0,1 Q4.5,-8 0,-17 Q-4.5,-8 0,1 Z" transform="rotate(337.5)"/>
      </g>
      <circle r="5" fill="#C16C82" stroke="#8E4359" stroke-width="1.2"/>
      <circle r="1.8" fill="#F4ECDE"/>
    </g>
  </g>

  <!-- Brand text -->
  <text x="612" y="262" font-family="Georgia, 'Times New Roman', serif" font-size="98" font-weight="bold" fill="#8E4359">Chikankari</text>
  <text x="614" y="340" font-family="Georgia, 'Times New Roman', serif" font-size="56" font-style="italic" fill="#C16C82">by Kanchan</text>
  <line x1="616" y1="382" x2="934" y2="382" stroke="#C16C82" stroke-width="2"/>
  <text x="614" y="438" font-family="Georgia, 'Times New Roman', serif" font-size="32" fill="#5A5550">Authentic Handcrafted</text>
  <text x="614" y="482" font-family="Georgia, 'Times New Roman', serif" font-size="32" fill="#5A5550">Lucknowi Chikankari Kurtas</text>
</svg>
